<svg width="240" height="78" viewBox="0 0 240 78" fill="none" xmlns="http://www.w3.org/2000/svg">
<g clip-path="url(#clip0_922_5591)">
<path d="M208.255 69.9989L31.288 76.2204C23.9115 76.4582 16.7402 73.7585 11.3397 68.7106C5.93918 63.6627 2.7483 56.6768 2.46359 49.278C2.22705 41.8768 4.91824 34.6828 9.94996 29.2662C14.9817 23.8496 21.9454 20.6501 29.321 20.3661L206.288 14.1445C213.665 13.9046 220.836 16.6039 226.236 21.6525C231.636 26.7011 234.824 33.6884 235.104 41.0872C235.343 48.4877 232.654 55.6816 227.623 61.0984C222.593 66.5152 215.63 69.7149 208.255 69.9989Z" fill="#1D1E1C"/>
<path d="M208.551 59.423L31.5842 65.6445C24.2084 65.8823 17.0379 63.1822 11.6387 58.1341C6.23952 53.086 3.05041 46.0999 2.76791 38.7018C2.53137 31.3006 5.22266 24.1066 10.2544 18.69C15.2861 13.2733 22.2497 10.0739 29.6253 9.78993L206.593 3.56838C213.969 3.3284 221.141 6.02766 226.54 11.0763C231.94 16.1249 235.129 23.1122 235.409 30.5111C235.648 37.9129 232.957 45.1081 227.925 50.5252C222.893 55.9424 215.928 59.1412 208.551 59.423Z" fill="url(#paint0_linear_922_5591)"/>
<path d="M42.0823 45.6414C41.7283 46.0199 41.3025 46.3238 40.83 46.5352C40.3574 46.7466 39.8476 46.8613 39.3303 46.8725C38.8141 46.8961 38.2984 46.8158 37.8136 46.6363C37.3287 46.4569 36.8845 46.182 36.5071 45.8278C36.1301 45.4726 35.8279 45.0453 35.6185 44.571C35.409 44.0966 35.2966 43.585 35.2877 43.0663L34.7055 26.3957C34.672 25.4359 34.9815 24.4957 35.5779 23.7447C36.2961 23.0594 37.2538 22.6843 38.245 22.7002C39.0724 22.6219 39.9032 22.8091 40.6178 23.2349C40.9369 23.4479 41.2078 23.726 41.4126 24.051C41.6175 24.376 41.7517 24.7407 41.8066 25.1212L41.9315 26.0766C42.519 24.8882 43.4582 23.9111 44.6205 23.2787C45.7834 22.6154 47.0888 22.2435 48.4258 22.1945C49.7512 22.0927 51.0797 22.351 52.2714 22.9423C53.4631 23.5337 54.474 24.4362 55.1979 25.5549C55.8886 24.3499 56.9159 23.374 58.1528 22.7477C59.4326 22.0912 60.8378 21.7177 62.2738 21.6525C63.6439 21.5584 65.0185 21.7522 66.3097 22.2216C67.6009 22.691 68.7804 23.4255 69.7725 24.3783C71.7402 26.3864 72.839 29.092 72.8305 31.9076L73.1658 41.5099C73.2059 42.0213 73.1425 42.5356 72.9794 43.0217C72.8162 43.5079 72.5567 43.9559 72.2164 44.3388C71.8624 44.7173 71.4367 45.0211 70.9641 45.2325C70.4916 45.4439 69.9817 45.5585 69.4644 45.5698C68.9484 45.5915 68.4332 45.5103 67.9487 45.331C67.4641 45.1517 67.0197 44.8778 66.6413 44.5251C66.2771 44.164 65.9888 43.7333 65.7936 43.2585C65.5984 42.7836 65.5002 42.2743 65.5049 41.7607L65.1786 32.4168C65.1453 31.3904 64.7416 30.4111 64.0425 29.6608C63.679 29.3134 63.2503 29.0418 62.7814 28.8619C62.3124 28.682 61.8125 28.5974 61.3108 28.6129C60.3097 28.632 59.3551 29.0392 58.6469 29.7491C58.2939 30.1276 58.02 30.5731 57.8412 31.0595C57.6625 31.5459 57.5826 32.0632 57.6062 32.5811L57.9386 42.1001C57.9743 42.6119 57.908 43.1256 57.7436 43.6114C57.5792 44.0972 57.3199 44.5452 56.9809 44.9292C56.6283 45.3067 56.2037 45.6094 55.7323 45.8193C55.261 46.0293 54.7526 46.1423 54.2369 46.1517C53.7206 46.1766 53.2044 46.097 52.7194 45.9175C52.2343 45.738 51.7902 45.4623 51.4136 45.1069C51.0478 44.7489 50.7585 44.3199 50.5632 43.846C50.3678 43.3722 50.2707 42.8635 50.2776 42.3509L49.9513 33.007C49.9154 31.9786 49.5121 30.9975 48.8149 30.2426C48.0767 29.5472 47.0955 29.1708 46.0832 29.1947C45.0725 29.2483 44.1206 29.6876 43.4225 30.4226C42.7223 31.2282 42.3516 32.2696 42.3847 33.338L42.7081 42.5985C42.918 43.1106 42.9706 43.6739 42.8591 44.2161C42.7476 44.7583 42.4771 45.2546 42.0823 45.6414Z" fill="white"/>
<path d="M89.6466 45.1321C87.6657 45.1823 85.7034 44.7375 83.9364 43.8376C82.0936 42.9161 80.5185 41.5341 79.3625 39.8246C78.1482 37.969 77.4736 35.8106 77.4145 33.5918C77.3116 31.3468 77.8423 29.1183 78.9453 27.1624C79.9359 25.3378 81.4282 23.8373 83.2448 22.8396C84.9405 21.8041 86.8751 21.2276 88.8595 21.1663C90.3608 21.127 91.8535 21.4076 93.2388 21.9898C94.4281 22.4714 95.4533 23.2877 96.1909 24.3403L96.2456 23.2869C96.3605 22.5751 96.7469 21.9361 97.323 21.505C98.0115 21.0424 98.8243 20.8015 99.653 20.8145C100.111 20.7773 100.571 20.8448 100.999 21.012C101.427 21.1792 101.812 21.4417 102.124 21.7797C102.824 22.5329 103.228 23.5151 103.26 24.5441L103.834 40.9563C103.899 41.9729 103.59 42.9781 102.967 43.7823C102.655 44.1655 102.262 44.4743 101.816 44.6862C101.37 44.898 100.883 45.0077 100.39 45.0073C99.5213 45.1127 98.6449 44.8905 97.9306 44.3838C97.3307 43.9904 96.9044 43.3808 96.7399 42.6811L96.62 41.6338C95.9735 42.7475 94.9989 43.6328 93.8303 44.1681C92.5147 44.7688 91.0917 45.0967 89.6466 45.1321ZM86.9294 36.8815C87.4418 37.3798 88.0517 37.7659 88.7205 38.0155C89.3894 38.2651 90.1025 38.3727 90.8148 38.3315C91.5249 38.3117 92.2241 38.1512 92.872 37.8594C93.5199 37.5675 94.1039 37.1499 94.5903 36.6307C95.0867 36.1183 95.4715 35.508 95.7202 34.8384C95.9689 34.1689 96.0761 33.4547 96.035 32.7413C95.9934 31.3004 95.3832 29.9349 94.3385 28.9449C93.8286 28.4462 93.2201 28.0602 92.5523 27.8118C91.8846 27.5635 91.1724 27.4583 90.4617 27.503C89.7508 27.5211 89.0505 27.6799 88.4011 27.9704C87.7517 28.2609 87.166 28.6773 86.6777 29.1958C86.1805 29.7089 85.7959 30.3207 85.5485 30.992C85.3012 31.6632 85.1966 32.3789 85.2415 33.0932C85.1985 33.8191 85.3294 34.5449 85.6232 35.2098C85.9171 35.8747 86.3653 36.4594 86.9306 36.9148L86.9294 36.8815Z" fill="white"/>
<path d="M143.145 42.329C142.791 42.7075 142.365 43.0113 141.893 43.2227C141.42 43.4341 140.91 43.5488 140.393 43.5601C139.877 43.5817 139.362 43.5006 138.877 43.3212C138.392 43.1419 137.948 42.868 137.57 42.5153C137.193 42.1596 136.892 41.7321 136.682 41.2579C136.473 40.7837 136.36 40.2724 136.35 39.7538L135.768 23.0832C135.732 22.123 136.041 21.1819 136.64 20.4323C137.357 19.7438 138.316 19.3683 139.307 19.3878C140.134 19.311 140.963 19.495 141.68 19.9142C141.998 20.1287 142.268 20.4071 142.472 20.7319C142.677 21.0566 142.812 21.4205 142.869 21.8004L142.994 22.7558C143.581 21.5675 144.52 20.5903 145.683 19.958C146.847 19.2973 148.151 18.9256 149.488 18.8737C150.813 18.7755 152.14 19.0354 153.331 19.6264C154.522 20.2174 155.534 21.1179 156.26 22.2341C156.951 21.0291 157.978 20.0533 159.215 19.427C160.496 18.7743 161.901 18.401 163.336 18.3317C164.706 18.2397 166.08 18.4345 167.371 18.9038C168.662 19.373 169.841 20.1064 170.835 21.0575C172.786 23.0644 173.875 25.7593 173.867 28.5627L174.203 38.1733C174.242 38.6847 174.178 39.1987 174.015 39.6847C173.852 40.1707 173.593 40.6188 173.253 41.0022C172.899 41.3796 172.473 41.6821 172 41.8921C171.527 42.1021 171.018 42.2152 170.501 42.225C169.985 42.2485 169.469 42.1682 168.984 41.9888C168.499 41.8093 168.055 41.5344 167.678 41.1802C167.313 40.821 167.025 40.3918 166.83 39.9182C166.635 39.4447 166.537 38.9365 166.542 38.4241L166.215 29.0803C166.183 28.0511 165.779 27.0686 165.079 26.3158C164.343 25.6173 163.36 25.2404 162.347 25.2679C161.345 25.2902 160.391 25.7003 159.684 26.4125C159.33 26.7889 159.056 27.2329 158.877 27.718C158.698 28.2032 158.618 28.7195 158.643 29.2362L158.975 38.7551C159.012 39.267 158.946 39.7812 158.782 40.2672C158.617 40.7531 158.357 41.201 158.017 41.5843C157.665 41.9629 157.241 42.2668 156.77 42.4782C156.298 42.6896 155.79 42.8042 155.274 42.8151C154.757 42.8396 154.241 42.7597 153.756 42.5803C153.271 42.4008 152.827 42.1254 152.45 41.7704C152.084 41.4111 151.794 40.9807 151.599 40.5054C151.403 40.0302 151.307 39.5199 151.314 39.006L150.988 29.6705C150.952 28.6421 150.549 27.6609 149.852 26.906C149.487 26.5597 149.059 26.2889 148.59 26.1091C148.121 25.9293 147.622 25.844 147.12 25.8581C146.109 25.9117 145.157 26.351 144.459 27.086C143.759 27.8916 143.388 28.933 143.421 30.0014L143.745 39.262C143.942 39.7782 143.99 40.3396 143.884 40.882C143.778 41.4244 143.522 41.9259 143.145 42.329Z" fill="white"/>
<path d="M190.701 41.8199C188.722 41.8662 186.763 41.4184 184.999 40.5169C183.153 39.6004 181.576 38.2173 180.425 36.5039C179.21 34.6518 178.535 32.4957 178.477 30.2794C178.375 28.0318 178.906 25.801 180.008 23.8417C181.001 22.0193 182.493 20.5196 184.307 19.5188C186.004 18.4859 187.938 17.9122 189.922 17.8539C191.423 17.8076 192.916 18.0856 194.301 18.669C195.487 19.1556 196.511 19.9708 197.253 21.0195L197.308 19.9744C197.425 19.2612 197.811 18.6203 198.385 18.1843C199.075 17.7245 199.888 17.4866 200.716 17.502C201.173 17.4648 201.634 17.5324 202.062 17.6996C202.49 17.8668 202.874 18.1292 203.187 18.4672C203.886 19.2171 204.29 20.1968 204.323 21.2233L204.896 37.6439C204.956 38.6599 204.648 39.6632 204.03 40.4699C203.717 40.8516 203.323 41.1588 202.877 41.3692C202.432 41.5796 201.945 41.688 201.452 41.6865C200.585 41.7951 199.708 41.5758 198.993 41.0714C198.391 40.6761 197.965 40.0632 197.802 39.3604L197.682 38.3131C197.039 39.4312 196.064 40.32 194.893 40.8557C193.571 41.4451 192.147 41.7725 190.701 41.8199ZM187.917 33.5717C188.427 34.0704 189.036 34.4564 189.703 34.7047C190.371 34.9531 191.083 35.0583 191.794 35.0136C192.505 34.9946 193.205 34.8354 193.854 34.545C194.503 34.2545 195.089 33.8386 195.578 33.3209C196.075 32.8077 196.46 32.1959 196.707 31.5247C196.955 30.8534 197.059 30.1377 197.014 29.4234C196.996 28.7115 196.837 28.0103 196.548 27.3601C196.258 26.7099 195.843 26.1236 195.326 25.6351C194.814 25.1368 194.204 24.7506 193.535 24.501C192.866 24.2514 192.153 24.1439 191.441 24.1852C190.008 24.2287 188.65 24.8403 187.665 25.886C187.168 26.3993 186.783 27.011 186.534 27.6821C186.285 28.3532 186.179 29.0689 186.221 29.7837C186.22 30.5038 186.37 31.2161 186.661 31.8745C186.952 32.5329 187.377 33.1225 187.91 33.6053L187.917 33.5717Z" fill="white"/>
<path d="M130.214 25.5307C130.486 25.2346 130.693 24.8849 130.823 24.5039C130.953 24.123 131.002 23.7191 130.968 23.3178C130.96 22.834 130.855 22.3567 130.661 21.9136C130.467 21.4706 130.188 21.0705 129.838 20.7368C129.491 20.3901 129.077 20.1181 128.622 19.9374C128.166 19.7568 127.679 19.6712 127.19 19.686C126.6 19.7352 126.029 19.91 125.512 20.1986C124.996 20.4872 124.547 20.8829 124.195 21.3595L109.423 38.5663C109.173 38.8713 108.989 39.225 108.882 39.605C108.775 39.9851 108.748 40.3833 108.802 40.7745C108.81 41.2583 108.915 41.7356 109.109 42.1787C109.303 42.6218 109.582 43.0218 109.932 43.3555C110.279 43.7022 110.693 43.9742 111.148 44.1549C111.603 44.3356 112.091 44.4211 112.58 44.4064C113.158 44.3622 113.718 44.1894 114.22 43.9004C114.722 43.6114 115.154 43.2136 115.483 42.736L130.214 25.5307Z" fill="white"/>
<path d="M111.57 20.2232C112.148 20.1303 112.741 20.1748 113.299 20.3532C113.858 20.5315 114.367 20.8387 114.785 21.2501C115.204 21.6615 115.521 22.1657 115.711 22.7221C115.9 23.2785 115.957 23.8717 115.877 24.4541C115.766 25.2569 115.4 26.0021 114.832 26.5785C114.265 27.1549 113.526 27.5315 112.727 27.6519C112.149 27.7448 111.556 27.7003 110.998 27.5219C110.439 27.3436 109.93 27.0364 109.511 26.625C109.093 26.2136 108.776 25.7094 108.586 25.153C108.397 24.5966 108.34 24.0034 108.42 23.421C108.533 22.6193 108.9 21.8754 109.468 21.2995C110.035 20.7235 110.772 20.3461 111.57 20.2232Z" fill="white"/>
<path d="M127.352 36.4882C127.93 36.3972 128.522 36.443 129.08 36.622C129.637 36.801 130.146 37.1082 130.564 37.5192C130.982 37.9302 131.299 38.4336 131.489 38.9892C131.679 39.5447 131.737 40.1372 131.659 40.7192C131.546 41.5231 131.178 42.2691 130.609 42.8466C130.041 43.4241 129.302 43.8025 128.502 43.9256C127.923 44.0166 127.332 43.9709 126.774 43.7919C126.216 43.6129 125.708 43.3056 125.29 42.8946C124.871 42.4836 124.554 41.9803 124.364 41.4247C124.174 40.8691 124.116 40.2767 124.195 39.6946C124.308 38.8907 124.676 38.1447 125.244 37.5672C125.813 36.9897 126.552 36.6114 127.352 36.4882Z" fill="white"/>
<path d="M30.23 67.3616C22.5987 67.1565 15.3317 64.04 9.90999 58.6472C4.48823 53.2543 1.31961 45.9909 1.04986 38.3369C0.787485 30.3827 3.67754 22.649 9.08706 16.8292C14.4966 11.0093 21.9848 7.57758 29.9122 7.28531L206.879 1.05541C214.808 0.791763 222.519 3.69203 228.322 9.12081C234.125 14.5496 237.546 22.0642 237.837 30.018C238.106 37.9778 235.22 45.7195 229.811 51.5474C224.401 57.3753 216.91 60.8144 208.976 61.1113L32.0094 67.3412C31.4367 67.3779 30.8128 67.3746 30.23 67.3616ZM208.574 5.26912C208.059 5.2871 207.533 5.25537 207.01 5.27365L30.043 11.5035C23.212 11.7421 16.7559 14.6932 12.0949 19.7077C7.43393 24.7222 4.94996 31.3894 5.18927 38.2424C5.42859 45.0955 8.37159 51.573 13.371 56.2502C18.3704 60.9274 25.0167 63.421 31.8476 63.1824L208.815 56.9609C215.646 56.7223 222.102 53.7712 226.763 48.7567C231.424 43.7422 233.908 37.0751 233.669 30.222C233.441 23.6459 230.723 17.4037 226.068 12.7671C221.413 8.13058 215.172 5.44862 208.615 5.26767L208.574 5.26912Z" fill="#1D1E1C"/>
<path d="M237.312 37.1377L234.374 48.5067L233.42 38.3502L237.312 37.1377Z" fill="#1D1E1C"/>
<path d="M1.05103 38.3696L2.67802 51.8492L5.23566 44.0987L1.05103 38.3696Z" fill="#1D1E1C"/>
</g>
<defs>
<linearGradient id="paint0_linear_922_5591" x1="10.9071" y1="76.2059" x2="243.31" y2="-11.1475" gradientUnits="userSpaceOnUse">
<stop stop-color="#B000FF"/>
<stop offset="0.46" stop-color="#4643FF"/>
<stop offset="1" stop-color="#00FF93"/>
</linearGradient>
<clipPath id="clip0_922_5591">
<rect width="237" height="69" fill="white" transform="translate(0 8.271) rotate(-2)"/>
</clipPath>
</defs>
</svg>
